<?xml version="1.0" encoding="UTF-8" standalone="no"?>
<!DOCTYPE svg PUBLIC "-//W3C//DTD SVG 1.1//EN" "http://www.w3.org/Graphics/SVG/1.1/DTD/svg11.dtd">
<svg xmlns="http://www.w3.org/2000/svg" version="1.1" viewBox="0.00 0.00 196.00 228.00">
<g stroke-width="2.00" fill="none" stroke-linecap="butt">
<path stroke="#808080" vector-effect="non-scaling-stroke" d="
  M 130.29 228.00
  Q 129.81 205.81 129.97 183.51
  Q 130.03 174.42 126.23 166.18
  C 125.15 163.85 123.31 162.06 121.62 160.16
  A 0.38 0.38 0.0 0 1 121.87 159.53
  C 139.11 158.20 157.00 152.00 168.12 138.33
  C 174.89 130.00 178.27 118.09 179.42 107.37
  C 181.25 90.29 178.97 75.39 167.18 62.21
  Q 166.79 61.78 166.95 61.23
  C 167.87 57.96 168.98 54.92 169.27 51.47
  Q 170.24 39.92 165.49 28.19
  Q 165.29 27.70 164.77 27.61
  Q 160.72 26.90 156.89 27.99
  Q 143.16 31.90 130.58 40.72
  A 1.04 1.03 -53.9 0 1 129.72 40.86
  Q 98.00 32.10 66.48 40.81
  Q 65.92 40.96 65.45 40.62
  Q 55.71 33.57 40.51 28.53
  Q 35.39 26.83 31.00 27.64
  Q 30.49 27.73 30.31 28.21
  Q 25.59 40.28 26.71 51.83
  C 27.03 55.14 28.16 58.17 29.08 61.33
  A 0.85 0.83 -32.1 0 1 28.89 62.13
  Q 16.27 76.03 16.01 95.45
  C 15.78 111.63 19.47 129.86 30.35 141.43
  C 41.44 153.23 58.09 157.93 73.93 159.62
  A 0.34 0.34 0.0 0 1 74.13 160.20
  Q 67.86 166.49 66.53 176.27
  Q 66.44 176.92 65.85 177.18
  C 54.97 182.08 39.77 181.81 32.37 171.10
  Q 28.99 166.22 25.88 162.25
  C 21.22 156.32 12.45 151.42 4.62 153.70
  A 1.58 1.58 0.0 0 0 3.66 155.95
  C 5.35 159.14 8.84 161.14 11.53 163.27
  C 16.94 167.55 20.53 174.00 22.99 180.53
  C 26.06 188.70 33.48 193.42 41.85 194.99
  Q 49.41 196.41 56.18 196.15
  C 59.25 196.03 62.31 195.46 65.35 195.05
  Q 65.97 194.97 65.96 195.59
  L 65.67 228.00"
/>
<path stroke="#808080" vector-effect="non-scaling-stroke" d="
  M 18.0721 158.9848
  A 1.72 1.28 23.1 0 0 16.9922 157.1326
  A 1.72 1.28 23.1 0 0 14.9079 157.6352
  A 1.72 1.28 23.1 0 0 15.9878 159.4874
  A 1.72 1.28 23.1 0 0 18.0721 158.9848"
/>
<path stroke="#808080" vector-effect="non-scaling-stroke" d="
  M 23.2641 164.8052
  A 2.16 1.56 48.4 0 0 22.9966 162.1543
  A 2.16 1.56 48.4 0 0 20.3959 161.5748
  A 2.16 1.56 48.4 0 0 20.6634 164.2257
  A 2.16 1.56 48.4 0 0 23.2641 164.8052"
/>
<path stroke="#808080" vector-effect="non-scaling-stroke" d="
  M 28.1599 172.4156
  A 2.57 1.75 60.9 0 0 28.4391 169.3189
  A 2.57 1.75 60.9 0 0 25.6601 167.9244
  A 2.57 1.75 60.9 0 0 25.3809 171.0211
  A 2.57 1.75 60.9 0 0 28.1599 172.4156"
/>
<path stroke="#808080" vector-effect="non-scaling-stroke" d="
  M 35.4283 179.0450
  A 1.59 1.59 0.0 0 0 35.2753 176.8016
  L 33.7381 175.4606
  A 1.59 1.59 0.0 0 0 31.4947 175.6135
  L 31.2317 175.9150
  A 1.59 1.59 0.0 0 0 31.3847 178.1584
  L 32.9219 179.4994
  A 1.59 1.59 0.0 0 0 35.1653 179.3465
  L 35.4283 179.0450"
/>
<path stroke="#808080" vector-effect="non-scaling-stroke" d="
  M 44.9084 183.4250
  A 2.76 1.94 14.8 0 0 42.7356 180.8444
  A 2.76 1.94 14.8 0 0 39.5716 182.0150
  A 2.76 1.94 14.8 0 0 41.7444 184.5956
  A 2.76 1.94 14.8 0 0 44.9084 183.4250"
/>
<path stroke="#808080" vector-effect="non-scaling-stroke" d="
  M 65.0269 182.6983
  A 2.69 1.93 -11.4 0 0 62.0085 181.3381
  A 2.69 1.93 -11.4 0 0 59.7531 183.7617
  A 2.69 1.93 -11.4 0 0 62.7715 185.1219
  A 2.69 1.93 -11.4 0 0 65.0269 182.6983"
/>
<path stroke="#808080" vector-effect="non-scaling-stroke" d="
  M 55.3937 184.1857
  A 2.71 1.88 -3.9 0 0 52.5621 182.4944
  A 2.71 1.88 -3.9 0 0 49.9863 184.5543
  A 2.71 1.88 -3.9 0 0 52.8179 186.2456
  A 2.71 1.88 -3.9 0 0 55.3937 184.1857"
/>
</g>
<path fill="#000000" d="
  M 0.00 0.00
  L 196.00 0.00
  L 196.00 228.00
  L 130.29 228.00
  Q 129.81 205.81 129.97 183.51
  Q 130.03 174.42 126.23 166.18
  C 125.15 163.85 123.31 162.06 121.62 160.16
  A 0.38 0.38 0.0 0 1 121.87 159.53
  C 139.11 158.20 157.00 152.00 168.12 138.33
  C 174.89 130.00 178.27 118.09 179.42 107.37
  C 181.25 90.29 178.97 75.39 167.18 62.21
  Q 166.79 61.78 166.95 61.23
  C 167.87 57.96 168.98 54.92 169.27 51.47
  Q 170.24 39.92 165.49 28.19
  Q 165.29 27.70 164.77 27.61
  Q 160.72 26.90 156.89 27.99
  Q 143.16 31.90 130.58 40.72
  A 1.04 1.03 -53.9 0 1 129.72 40.86
  Q 98.00 32.10 66.48 40.81
  Q 65.92 40.96 65.45 40.62
  Q 55.71 33.57 40.51 28.53
  Q 35.39 26.83 31.00 27.64
  Q 30.49 27.73 30.31 28.21
  Q 25.59 40.28 26.71 51.83
  C 27.03 55.14 28.16 58.17 29.08 61.33
  A 0.85 0.83 -32.1 0 1 28.89 62.13
  Q 16.27 76.03 16.01 95.45
  C 15.78 111.63 19.47 129.86 30.35 141.43
  C 41.44 153.23 58.09 157.93 73.93 159.62
  A 0.34 0.34 0.0 0 1 74.13 160.20
  Q 67.86 166.49 66.53 176.27
  Q 66.44 176.92 65.85 177.18
  C 54.97 182.08 39.77 181.81 32.37 171.10
  Q 28.99 166.22 25.88 162.25
  C 21.22 156.32 12.45 151.42 4.62 153.70
  A 1.58 1.58 0.0 0 0 3.66 155.95
  C 5.35 159.14 8.84 161.14 11.53 163.27
  C 16.94 167.55 20.53 174.00 22.99 180.53
  C 26.06 188.70 33.48 193.42 41.85 194.99
  Q 49.41 196.41 56.18 196.15
  C 59.25 196.03 62.31 195.46 65.35 195.05
  Q 65.97 194.97 65.96 195.59
  L 65.67 228.00
  L 0.00 228.00
  L 0.00 0.00
  Z"
/>
<path fill="#ffffff" d="
  M 130.29 228.00
  L 65.67 228.00
  L 65.96 195.59
  Q 65.97 194.97 65.35 195.05
  C 62.31 195.46 59.25 196.03 56.18 196.15
  Q 49.41 196.41 41.85 194.99
  C 33.48 193.42 26.06 188.70 22.99 180.53
  C 20.53 174.00 16.94 167.55 11.53 163.27
  C 8.84 161.14 5.35 159.14 3.66 155.95
  A 1.58 1.58 0.0 0 1 4.62 153.70
  C 12.45 151.42 21.22 156.32 25.88 162.25
  Q 28.99 166.22 32.37 171.10
  C 39.77 181.81 54.97 182.08 65.85 177.18
  Q 66.44 176.92 66.53 176.27
  Q 67.86 166.49 74.13 160.20
  A 0.34 0.34 0.0 0 0 73.93 159.62
  C 58.09 157.93 41.44 153.23 30.35 141.43
  C 19.47 129.86 15.78 111.63 16.01 95.45
  Q 16.27 76.03 28.89 62.13
  A 0.85 0.83 -32.1 0 0 29.08 61.33
  C 28.16 58.17 27.03 55.14 26.71 51.83
  Q 25.59 40.28 30.31 28.21
  Q 30.49 27.73 31.00 27.64
  Q 35.39 26.83 40.51 28.53
  Q 55.71 33.57 65.45 40.62
  Q 65.92 40.96 66.48 40.81
  Q 98.00 32.10 129.72 40.86
  A 1.04 1.03 -53.9 0 0 130.58 40.72
  Q 143.16 31.90 156.89 27.99
  Q 160.72 26.90 164.77 27.61
  Q 165.29 27.70 165.49 28.19
  Q 170.24 39.92 169.27 51.47
  C 168.98 54.92 167.87 57.96 166.95 61.23
  Q 166.79 61.78 167.18 62.21
  C 178.97 75.39 181.25 90.29 179.42 107.37
  C 178.27 118.09 174.89 130.00 168.12 138.33
  C 157.00 152.00 139.11 158.20 121.87 159.53
  A 0.38 0.38 0.0 0 0 121.62 160.16
  C 123.31 162.06 125.15 163.85 126.23 166.18
  Q 130.03 174.42 129.97 183.51
  Q 129.81 205.81 130.29 228.00
  Z
  M 18.0721 158.9848
  A 1.72 1.28 23.1 0 0 16.9922 157.1326
  A 1.72 1.28 23.1 0 0 14.9079 157.6352
  A 1.72 1.28 23.1 0 0 15.9878 159.4874
  A 1.72 1.28 23.1 0 0 18.0721 158.9848
  Z
  M 23.2641 164.8052
  A 2.16 1.56 48.4 0 0 22.9966 162.1543
  A 2.16 1.56 48.4 0 0 20.3959 161.5748
  A 2.16 1.56 48.4 0 0 20.6634 164.2257
  A 2.16 1.56 48.4 0 0 23.2641 164.8052
  Z
  M 28.1599 172.4156
  A 2.57 1.75 60.9 0 0 28.4391 169.3189
  A 2.57 1.75 60.9 0 0 25.6601 167.9244
  A 2.57 1.75 60.9 0 0 25.3809 171.0211
  A 2.57 1.75 60.9 0 0 28.1599 172.4156
  Z
  M 35.4283 179.0450
  A 1.59 1.59 0.0 0 0 35.2753 176.8016
  L 33.7381 175.4606
  A 1.59 1.59 0.0 0 0 31.4947 175.6135
  L 31.2317 175.9150
  A 1.59 1.59 0.0 0 0 31.3847 178.1584
  L 32.9219 179.4994
  A 1.59 1.59 0.0 0 0 35.1653 179.3465
  L 35.4283 179.0450
  Z
  M 44.9084 183.4250
  A 2.76 1.94 14.8 0 0 42.7356 180.8444
  A 2.76 1.94 14.8 0 0 39.5716 182.0150
  A 2.76 1.94 14.8 0 0 41.7444 184.5956
  A 2.76 1.94 14.8 0 0 44.9084 183.4250
  Z
  M 65.0269 182.6983
  A 2.69 1.93 -11.4 0 0 62.0085 181.3381
  A 2.69 1.93 -11.4 0 0 59.7531 183.7617
  A 2.69 1.93 -11.4 0 0 62.7715 185.1219
  A 2.69 1.93 -11.4 0 0 65.0269 182.6983
  Z
  M 55.3937 184.1857
  A 2.71 1.88 -3.9 0 0 52.5621 182.4944
  A 2.71 1.88 -3.9 0 0 49.9863 184.5543
  A 2.71 1.88 -3.9 0 0 52.8179 186.2456
  A 2.71 1.88 -3.9 0 0 55.3937 184.1857
  Z"
/>
<ellipse fill="#000000" cx="0.00" cy="0.00" transform="translate(16.49,158.31) rotate(23.1)" rx="1.72" ry="1.28"/>
<ellipse fill="#000000" cx="0.00" cy="0.00" transform="translate(21.83,163.19) rotate(48.4)" rx="2.16" ry="1.56"/>
<ellipse fill="#000000" cx="0.00" cy="0.00" transform="translate(26.91,170.17) rotate(60.9)" rx="2.57" ry="1.75"/>
<rect fill="#000000" x="-2.61" y="-1.79" transform="translate(33.33,177.48) rotate(41.1)" width="5.22" height="3.58" rx="1.59"/>
<ellipse fill="#000000" cx="0.00" cy="0.00" transform="translate(42.24,182.72) rotate(14.8)" rx="2.76" ry="1.94"/>
<ellipse fill="#000000" cx="0.00" cy="0.00" transform="translate(62.39,183.23) rotate(-11.4)" rx="2.69" ry="1.93"/>
<ellipse fill="#000000" cx="0.00" cy="0.00" transform="translate(52.69,184.37) rotate(-3.9)" rx="2.71" ry="1.88"/>
</svg>
